<?xml version="1.0" standalone="no"?>
<!DOCTYPE svg PUBLIC "-//W3C//DTD SVG 20010904//EN"
 "http://www.w3.org/TR/2001/REC-SVG-20010904/DTD/svg10.dtd">
<svg version="1.0" xmlns="http://www.w3.org/2000/svg"
 width="510.000000pt" height="510.000000pt" viewBox="0 0 510.000000 510.000000"
 preserveAspectRatio="xMidYMid meet">
<metadata>
Created by potrace 1.11, written by Peter Selinger 2001-2013
</metadata>
<g transform="translate(0.000000,510.000000) scale(0.100000,-0.100000)"
fill="#000000" stroke="none">
<path d="M2250 5079 c-162 -9 -308 -39 -471 -95 -437 -149 -796 -385 -1111
-728 -121 -132 -284 -354 -355 -484 -115 -212 -210 -457 -259 -672 l-29 -125
0 -440 c0 -484 -3 -454 71 -707 60 -206 189 -483 313 -671 136 -206 353 -449
531 -593 243 -198 578 -372 882 -459 646 -187 1315 -119 1908 192 232 121 419
259 608 446 413 408 666 921 744 1507 19 143 16 509 -6 655 -67 459 -250 892
-514 1220 -93 115 -390 406 -492 482 -269 200 -626 364 -957 438 -102 23 -153
28 -368 36 -281 9 -319 9 -495 -2z m-114 -2354 l470 -1130 -175 -3 c-96 -1
-178 1 -182 5 -5 5 -73 163 -153 353 l-144 345 -470 3 -469 2 -113 -272 c-62
-150 -129 -310 -147 -355 l-35 -83 -180 0 c-167 0 -180 1 -175 18 5 18 926
2232 934 2245 2 4 86 6 186 5 l182 -3 471 -1130z m1789 1111 c222 -64 390
-220 459 -426 23 -69 28 -103 29 -185 1 -122 -13 -185 -66 -294 -66 -137 -197
-257 -340 -312 -35 -13 -54 -26 -50 -33 4 -6 172 -230 375 -498 202 -268 368
-490 368 -493 0 -3 -92 -5 -204 -5 l-204 0 -357 490 -357 490 -199 0 -199 0 0
-490 0 -490 -165 0 -165 0 0 1136 0 1136 508 -5 c442 -3 515 -6 567 -21z"/>
<path d="M1480 3420 c0 -3 -76 -185 -168 -405 l-168 -400 168 -3 c92 -1 244
-1 337 0 l170 3 -160 385 c-168 407 -177 428 -179 420z"/>
<path d="M3180 3220 l0 -340 320 0 c381 0 396 3 491 99 70 72 99 142 99 241 0
99 -29 169 -99 241 -95 96 -110 99 -491 99 l-320 0 0 -340z"/>
</g>
</svg>
